<?xml version="1.0" encoding="iso-8859-1"?>
<!-- Generator: Adobe Illustrator 19.0.0, SVG Export Plug-In . SVG Version: 6.00 Build 0)  -->
<svg version="1.1" id="Layer_1" xmlns="http://www.w3.org/2000/svg" xmlns:xlink="http://www.w3.org/1999/xlink" x="0px" y="0px"
	 viewBox="0 0 460 460" style="enable-background:new 0 0 460 460;" xml:space="preserve">
<g>
	<g>
		<g>
			<path style="fill:#E6563A;" d="M230,430c-3.477,0-6.953-1.206-9.761-3.613c-13.843-11.86-27.261-23.223-40.186-34.16
				C75.527,303.745,0,239.814,0,157.729C0,84.912,51.587,30,120,30c58.203,0,92.646,40.61,110,70.166
				C247.354,70.61,281.797,30,340,30c68.413,0,120,54.912,120,127.729c0,82.085-75.527,146.016-180.054,234.497
				c-12.925,10.938-26.343,22.3-40.186,34.16C236.953,428.794,233.477,430,230,430z"/>
		</g>
	</g>
	<g>
		<path style="fill:#D9472B;" d="M239.761,426.387c13.843-11.86,27.261-23.223,40.186-34.16
			C384.473,303.745,460,239.814,460,157.729C460,84.912,408.413,30,340,30c-58.203,0-92.646,40.61-110,70.166V430
			C233.477,430,236.953,428.794,239.761,426.387z"/>
	</g>
</g>
<g>
</g>
<g>
</g>
<g>
</g>
<g>
</g>
<g>
</g>
<g>
</g>
<g>
</g>
<g>
</g>
<g>
</g>
<g>
</g>
<g>
</g>
<g>
</g>
<g>
</g>
<g>
</g>
<g>
</g>
</svg>
