<svg width="138" height="138" viewBox="0 0 138 138" fill="none" xmlns="http://www.w3.org/2000/svg">
<g filter="url(#filter0_d)">
<rect x="4" width="130" height="130" rx="25" fill="#C4C4C4"/>
<rect x="4" width="130" height="130" rx="25" fill="url(#paint0_linear)"/>
<rect x="4.5" y="0.5" width="129" height="129" rx="24.5" stroke="black"/>
</g>
<path d="M23.2057 60.592C23.2057 60.592 23.3338 70.256 23.5898 89.584C23.5898 90.928 23.2058 92.112 22.4378 93.136C21.7338 94.096 20.7098 94.576 19.3658 94.576C18.0218 94.576 16.9338 94.096 16.1018 93.136C15.2698 92.112 14.8538 90.928 14.8538 89.584L15.3338 60.592L14.8538 32.272C14.8538 30.928 15.2698 29.744 16.1018 28.72C16.9338 27.696 18.0218 27.184 19.3658 27.184C20.7098 27.184 21.7338 27.696 22.4378 28.72C23.2058 29.68 23.5898 31.024 23.5898 32.752C23.5898 34.48 23.5258 37.872 23.3978 42.928C23.3338 47.92 23.3018 51.056 23.3018 52.336C26.8858 46.32 31.9418 40.624 38.4698 35.248C45.0618 29.872 50.3098 27.184 54.2138 27.184C55.6858 27.184 56.9018 27.632 57.8618 28.528C58.8858 29.424 59.3978 30.576 59.3978 31.984C59.3978 33.392 58.8858 34.544 57.8618 35.44C56.9018 36.336 55.9098 36.784 54.8858 36.784C53.8618 36.784 52.8058 36.528 51.7178 36.016C50.6938 35.44 49.5418 35.152 48.2618 35.152C46.9818 35.152 45.0298 36.112 42.4058 38.032C39.7818 39.952 36.9658 42.512 33.9578 45.712C31.0778 48.912 28.7418 51.92 26.9498 54.736C46.0858 79.568 69.2218 98.352 96.3578 111.088C100.518 113.008 102.598 115.184 102.598 117.616C102.598 118.896 102.15 119.92 101.254 120.688C100.358 121.456 99.1098 121.84 97.5098 121.84C93.5418 121.84 86.8858 118.512 77.5418 111.856C68.2618 105.2 58.6298 97.232 48.6458 87.952C44.1018 83.792 39.3978 79.088 34.5338 73.84C29.7338 68.528 25.9578 64.112 23.2057 60.592ZM82.1153 27.76L97.0913 27.184C101.827 27.184 106.563 28.336 111.299 30.64C114.115 31.984 116.611 33.648 118.787 35.632C120.963 37.616 122.787 40.336 124.259 43.792C125.731 47.184 126.467 51.344 126.467 56.272C126.467 61.2 125.411 66.192 123.299 71.248C121.187 76.24 118.435 80.4 115.043 83.728C111.651 87.056 107.843 89.712 103.619 91.696C99.4593 93.616 95.2673 94.576 91.0433 94.576C85.0273 94.576 79.7793 92.816 75.2993 89.296C70.8193 85.776 68.5793 81.072 68.5793 75.184C68.5793 67.12 73.2513 60.848 82.5953 56.368C82.5953 49.968 82.4353 45.072 82.1153 41.68C81.8593 38.288 81.7313 36.304 81.7313 35.728C81.7313 35.152 81.8273 34.576 82.0193 34C75.6193 34.32 72.1313 34.48 71.5553 34.48C70.9793 34.48 70.2753 34.16 69.4433 33.52C68.6753 32.816 68.2913 31.92 68.2913 30.832C68.2913 29.744 68.6753 28.88 69.4433 28.24C70.2753 27.536 71.2033 27.184 72.2273 27.184L82.1153 27.76ZM90.0833 60.208L90.9473 74.32C90.9473 75.536 90.4993 76.624 89.6033 77.584C88.7713 78.544 87.6833 79.024 86.3393 79.024C84.9953 79.024 83.8753 78.544 82.9793 77.584C82.1473 76.624 81.7313 75.664 81.7313 74.704C81.7313 73.68 81.8273 71.76 82.0193 68.944C82.2753 66.064 82.4353 63.28 82.4993 60.592C80.5153 61.552 78.8833 63.184 77.6033 65.488C76.3233 67.728 75.6833 70.32 75.6833 73.264C75.6833 77.488 77.2193 80.976 80.2913 83.728C83.4273 86.416 87.8113 87.76 93.4433 87.76C100.803 87.76 106.979 85.008 111.971 79.504C116.963 73.936 119.459 67.184 119.459 59.248C119.459 51.312 116.995 45.104 112.067 40.624C107.139 36.08 100.131 33.808 91.0433 33.808H90.5633C90.8193 34.704 90.9473 35.312 90.9473 35.632C90.9473 35.888 90.7873 37.84 90.4673 41.488C90.2113 45.136 90.0833 49.424 90.0833 54.352C94.6273 54.352 98.1473 55.6 100.643 58.096C103.203 60.592 104.483 63.44 104.483 66.64C104.483 67.984 104.067 69.136 103.235 70.096C102.467 71.056 101.411 71.536 100.067 71.536C98.7233 71.536 97.6033 71.056 96.7073 70.096C95.8753 69.136 95.4593 68.048 95.4593 66.832C95.4593 63.568 93.6673 61.36 90.0833 60.208Z" fill="#FFFCFC"/>
<defs>
<filter id="filter0_d" x="0" y="0" width="138" height="138" filterUnits="userSpaceOnUse" color-interpolation-filters="sRGB">
<feFlood flood-opacity="0" result="BackgroundImageFix"/>
<feColorMatrix in="SourceAlpha" type="matrix" values="0 0 0 0 0 0 0 0 0 0 0 0 0 0 0 0 0 0 127 0"/>
<feOffset dy="4"/>
<feGaussianBlur stdDeviation="2"/>
<feColorMatrix type="matrix" values="0 0 0 0 0 0 0 0 0 0 0 0 0 0 0 0 0 0 0.25 0"/>
<feBlend mode="normal" in2="BackgroundImageFix" result="effect1_dropShadow"/>
<feBlend mode="normal" in="SourceGraphic" in2="effect1_dropShadow" result="shape"/>
</filter>
<linearGradient id="paint0_linear" x1="134" y1="130" x2="4" y2="0" gradientUnits="userSpaceOnUse">
<stop stop-color="#6423FF"/>
<stop offset="0.458397" stop-color="#9A41F1"/>
<stop offset="1" stop-color="#CF5FE4"/>
</linearGradient>
</defs>
</svg>
